<svg width="46" height="50" viewBox="0 0 46 50" fill="none" xmlns="http://www.w3.org/2000/svg">
<path d="M23.2273 21.5909H25.6033C25.8939 21.5991 26.05 21.6459 26.1595 21.7498C26.3067 21.8893 26.341 22.1063 26.3695 22.3071L29.4256 43.8017L23.2273 49.5868V21.5909Z" fill="#2B5278" fill-opacity="0.9"/>
<path d="M23.2273 21.5909H20.8512C20.5606 21.5991 20.4046 21.6459 20.295 21.7498C20.1478 21.8893 20.1136 22.1063 20.085 22.3071L17.0289 43.8017L23.2273 49.5868V21.5909Z" fill="#2B5278" fill-opacity="0.9"/>
<path d="M23.2273 15.9091H24.9029C26.2397 15.9091 27.1634 17.2463 26.6904 18.4966V18.4966C26.4092 19.2398 25.6975 19.7314 24.9029 19.7314H23.2273V15.9091Z" fill="#2B5278" fill-opacity="0.9"/>
<path d="M23.2273 15.9091H21.5517C20.2149 15.9091 19.2911 17.2463 19.7642 18.4966V18.4966C20.0454 19.2398 20.7571 19.7314 21.5517 19.7314H23.2273V15.9091Z" fill="#2B5278" fill-opacity="0.9"/>
<path d="M0.5 7.43802C1.82997 25.3152 5.87013 31.8207 14.9628 41.4256L15.4793 38.0165C7.95838 29.4428 5.1279 23.5437 3.49587 10.3306C11.6248 9.32364 15.9526 7.90437 23.2273 3.40909V0C14.9281 5.31075 10.0372 7.26169 0.5 7.43802Z" fill="#2B5278" fill-opacity="0.9"/>
<path d="M45.9545 7.43802C44.6246 25.3152 40.5844 31.8207 31.4917 41.4256L30.9752 38.0165C38.4962 29.4428 41.3266 23.5437 42.9587 10.3306C34.8298 9.32364 30.5019 7.90437 23.2273 3.40909V0C31.5264 5.31075 36.4174 7.26169 45.9545 7.43802Z" fill="#2B5278" fill-opacity="0.9"/>
</svg>
