<svg width="50" height="50" viewBox="0 0 50 50" fill="none" xmlns="http://www.w3.org/2000/svg">
<path d="M46.4018 37.9281L42.1994 33.3454C42.074 33.3853 41.9461 33.4193 41.8167 33.4471C41.6659 33.4792 41.5111 33.5032 41.3538 33.5181C41.226 33.5304 41.0958 33.5366 40.964 33.5366C38.7187 33.5366 36.899 31.7166 36.899 29.4715C36.899 29.1736 36.9307 28.883 36.9919 28.6032C37.0443 28.362 37.1181 28.1288 37.2118 27.9057L30.152 20.2073C29.6645 20.4141 29.1286 20.5285 28.5656 20.5285C27.7439 20.5285 26.9793 20.2847 26.3402 19.8657L13.1622 28.9503C13.2662 29.3094 13.3217 29.6889 13.3217 30.0813C13.3217 32.3264 11.502 34.1463 9.2567 34.1463C8.33889 34.1463 7.49174 33.8421 6.81133 33.3288L2.74708 36.1306L2.29135 35.4697C6.25238 44.0475 14.9311 50 25 50C34.0757 50 42.0216 45.164 46.4018 37.9281Z" fill="#2B5278"/>
<path d="M47.8984 35.0489C49.2497 31.9737 50 28.5744 50 25C50 11.193 38.8068 0 25 0C11.1932 0 0 11.193 0 25C0 27.9241 0.501778 30.731 1.42435 33.3391L5.24009 30.7089C5.22501 30.6111 5.2131 30.512 5.20516 30.4122C5.19642 30.303 5.19166 30.1927 5.19166 30.0813C5.19166 27.8362 7.0114 26.0163 9.2567 26.0163C9.99031 26.0163 10.6787 26.2104 11.2725 26.5502L24.6006 17.3622C24.5355 17.073 24.5006 16.7723 24.5006 16.4634C24.5006 14.2183 26.3203 12.3984 28.5656 12.3984C30.8109 12.3984 32.6307 14.2183 32.6307 16.4634C32.6307 17.0259 32.5164 17.5617 32.3099 18.0489L39.3586 25.7358C39.6723 25.6006 40.0073 25.504 40.3559 25.4518C40.5543 25.422 40.7576 25.4065 40.964 25.4065C43.2093 25.4065 45.0291 27.2264 45.0291 29.4715C45.0291 29.8155 44.987 30.1494 44.9068 30.4684C44.8242 30.7943 44.7027 31.1045 44.5471 31.3939L47.8984 35.0489Z" fill="#2B5278"/>
</svg>
