<svg width="51" height="50" viewBox="0 0 51 50" fill="none" xmlns="http://www.w3.org/2000/svg">
<path fill-rule="evenodd" clip-rule="evenodd" d="M8.75 43.9775C9.4648 44.5896 10.2146 45.1621 10.9959 45.6915C14.9916 48.3988 19.8125 49.9803 25.0023 49.9803C38.8094 49.9803 50.0023 38.7873 50.0023 24.9803C50.0023 19.7904 48.4211 14.97 45.7139 10.9744C45.1845 10.1931 44.6121 9.44333 44 8.72852L8.75 43.9775ZM43.6931 12.9952L13.0167 43.6707C16.4737 45.8927 20.5855 47.1803 25.0023 47.1803C37.263 47.1803 47.2024 37.2409 47.2024 24.9803C47.2024 20.5635 45.915 16.452 43.6931 12.9952Z" fill="#2B5278"/>
<path d="M41.4656 6.16836L27.6 20.0344V0.113867C32.8844 0.659961 37.6797 2.85195 41.4656 6.16836Z" fill="#2B5278"/>
<path d="M24 0V23.6344L6.18828 41.4463C2.33516 37.048 0 31.2869 0 24.9803C0 11.5082 10.6562 0.525 24 0Z" fill="#2B5278"/>
</svg>
