<svg width="60" height="52" viewBox="0 0 60 52" fill="none" xmlns="http://www.w3.org/2000/svg">
<path d="M27.1211 14.5068C27.1211 8.83779 31.7167 4.24219 37.3857 4.24219H45.4929C51.1619 4.24219 55.7575 8.83779 55.7575 14.5068V35.4928C55.7575 41.1617 51.1619 45.7573 45.4929 45.7573H37.3857C31.7167 45.7573 27.1211 41.1617 27.1211 35.4928V14.5068Z" fill="url(#paint0_linear_210_715)" fill-opacity="0.4"/>
<g filter="url(#filter0_biiii_210_715)">
<path d="M27.1211 8.24219C27.1211 6.03305 28.912 4.24219 31.1211 4.24219H51.7575C53.9666 4.24219 55.7575 6.03305 55.7575 8.24219V45.7573H27.1211V8.24219Z" fill="url(#paint1_linear_210_715)"/>
<path d="M27.6343 8.24219C27.6343 6.3165 29.1954 4.75542 31.1211 4.75542H51.7575C53.6831 4.75542 55.2442 6.3165 55.2442 8.24219V45.2441H27.6343V8.24219Z" stroke="url(#paint2_linear_210_715)" stroke-opacity="0.4" stroke-width="1.02646"/>
</g>
<g filter="url(#filter1_biiii_210_715)">
<path d="M27.1211 8.24219C27.1211 6.03305 28.912 4.24219 31.1211 4.24219H51.7575C53.9666 4.24219 55.7575 6.03305 55.7575 8.24219V45.7573H27.1211V8.24219Z" fill="url(#paint3_linear_210_715)"/>
<path d="M27.6343 8.24219C27.6343 6.3165 29.1954 4.75542 31.1211 4.75542H51.7575C53.6831 4.75542 55.2442 6.3165 55.2442 8.24219V45.2441H27.6343V8.24219Z" stroke="url(#paint4_linear_210_715)" stroke-opacity="0.4" stroke-width="1.02646"/>
</g>
<path d="M20.6364 20.1513C19.5318 20.1513 18.6364 21.0467 18.6364 22.1513V49.5149C18.6364 50.6195 17.7409 51.5149 16.6364 51.5149H6.24242C5.13786 51.5149 4.24242 50.6195 4.24242 49.5149V34.3937H0V18.5604C0 17.121 1.31591 14.2575 4.24242 14.2422H30.8788C31.9834 14.2422 32.8788 15.1376 32.8788 16.2422V18.1513C32.8788 19.2558 31.9834 20.1513 30.8788 20.1513H20.6364Z" fill="url(#paint5_linear_210_715)" fill-opacity="0.4"/>
<g filter="url(#filter2_biiii_210_715)">
<mask id="path-7-inside-1_210_715" fill="white">
<path d="M20.6364 20.1513C19.5318 20.1513 18.6364 21.0467 18.6364 22.1513V49.5149C18.6364 50.6195 17.7409 51.5149 16.6364 51.5149H6.24242C5.13786 51.5149 4.24242 50.6195 4.24242 49.5149V34.3937H0V18.5604C0 17.121 1.31591 14.2575 4.24242 14.2422H30.8788C31.9834 14.2422 32.8788 15.1376 32.8788 16.2422V18.1513C32.8788 19.2558 31.9834 20.1513 30.8788 20.1513H20.6364Z"/>
</mask>
<path d="M20.6364 20.1513C19.5318 20.1513 18.6364 21.0467 18.6364 22.1513V49.5149C18.6364 50.6195 17.7409 51.5149 16.6364 51.5149H6.24242C5.13786 51.5149 4.24242 50.6195 4.24242 49.5149V34.3937H0V18.5604C0 17.121 1.31591 14.2575 4.24242 14.2422H30.8788C31.9834 14.2422 32.8788 15.1376 32.8788 16.2422V18.1513C32.8788 19.2558 31.9834 20.1513 30.8788 20.1513H20.6364Z" fill="url(#paint6_linear_210_715)" fill-opacity="0.4"/>
<path d="M4.24242 14.2422V13.2157L4.23704 13.2157L4.24242 14.2422ZM0 34.3937H-1.02646V35.4202H0V34.3937ZM4.24242 34.3937H5.26888V33.3672H4.24242V34.3937ZM19.6628 49.5149V22.1513H17.6099V49.5149H19.6628ZM20.6364 21.1777H30.8788V19.1248H20.6364V21.1777ZM33.9052 18.1513V16.2422H31.8523V18.1513H33.9052ZM30.8788 13.2157H4.24242V15.2686H30.8788V13.2157ZM4.23704 13.2157C2.39611 13.2254 1.05868 14.1451 0.212038 15.239C-0.608124 16.2987 -1.02646 17.5916 -1.02646 18.5604H1.02646C1.02646 18.0897 1.26608 17.2312 1.8355 16.4955C2.37844 15.794 3.16223 15.2743 4.24781 15.2686L4.23704 13.2157ZM-1.02646 18.5604V34.3937H1.02646V18.5604H-1.02646ZM0 35.4202H4.24242V33.3672H0V35.4202ZM3.21597 34.3937V49.5149H5.26888V34.3937H3.21597ZM6.24242 52.5414H16.6364V50.4885H6.24242V52.5414ZM3.21597 49.5149C3.21597 51.1864 4.57096 52.5414 6.24242 52.5414V50.4885C5.70475 50.4885 5.26888 50.0526 5.26888 49.5149H3.21597ZM33.9052 16.2422C33.9052 14.5707 32.5503 13.2157 30.8788 13.2157V15.2686C31.4165 15.2686 31.8523 15.7045 31.8523 16.2422H33.9052ZM30.8788 21.1777C32.5503 21.1777 33.9052 19.8227 33.9052 18.1513H31.8523C31.8523 18.689 31.4165 19.1248 30.8788 19.1248V21.1777ZM19.6628 22.1513C19.6628 21.6136 20.0987 21.1777 20.6364 21.1777V19.1248C18.9649 19.1248 17.6099 20.4798 17.6099 22.1513H19.6628ZM17.6099 49.5149C17.6099 50.0526 17.174 50.4885 16.6364 50.4885V52.5414C18.3078 52.5414 19.6628 51.1864 19.6628 49.5149H17.6099Z" fill="url(#paint7_linear_210_715)" fill-opacity="0.4" mask="url(#path-7-inside-1_210_715)"/>
</g>
<path d="M57.1213 45.7578C58.7112 45.7578 60.0001 47.0467 60.0001 48.6366C60.0001 50.2265 58.7112 51.5154 57.1213 51.5154H25.7577C24.1678 51.5154 22.8789 50.2265 22.8789 48.6366C22.8789 47.0467 24.1678 45.7578 25.7577 45.7578H57.1213Z" fill="url(#paint8_linear_210_715)" fill-opacity="0.4"/>
<g filter="url(#filter3_biiii_210_715)">
<path d="M57.1213 45.7578C58.7112 45.7578 60.0001 47.0467 60.0001 48.6366C60.0001 50.2265 58.7112 51.5154 57.1213 51.5154H25.7577C24.1678 51.5154 22.8789 50.2265 22.8789 48.6366C22.8789 47.0467 24.1678 45.7578 25.7577 45.7578H57.1213Z" fill="url(#paint9_linear_210_715)"/>
</g>
<g filter="url(#filter4_biiii_210_715)">
<path d="M57.1213 45.7578C58.7112 45.7578 60.0001 47.0467 60.0001 48.6366C60.0001 50.2265 58.7112 51.5154 57.1213 51.5154H25.7577C24.1678 51.5154 22.8789 50.2265 22.8789 48.6366C22.8789 47.0467 24.1678 45.7578 25.7577 45.7578H57.1213Z" fill="url(#paint10_linear_210_715)"/>
</g>
<g filter="url(#filter5_biiii_210_715)">
<path d="M57.1213 45.7578C58.7112 45.7578 60.0001 47.0467 60.0001 48.6366C60.0001 50.2265 58.7112 51.5154 57.1213 51.5154H25.7577C24.1678 51.5154 22.8789 50.2265 22.8789 48.6366C22.8789 47.0467 24.1678 45.7578 25.7577 45.7578H57.1213Z" fill="url(#paint11_linear_210_715)"/>
</g>
<circle cx="11.5154" cy="5.75758" r="5.75758" fill="url(#paint12_linear_210_715)" fill-opacity="0.4"/>
<g filter="url(#filter6_biiii_210_715)">
<circle cx="11.5154" cy="5.75758" r="5.75758" fill="url(#paint13_linear_210_715)" fill-opacity="0.4"/>
<circle cx="11.5154" cy="5.75758" r="5.24435" stroke="url(#paint14_linear_210_715)" stroke-opacity="0.4" stroke-width="1.02646"/>
</g>
<defs>
<filter id="filter0_biiii_210_715" x="16.8565" y="-6.02238" width="49.1654" height="64.0972" filterUnits="userSpaceOnUse" color-interpolation-filters="sRGB">
<feFlood flood-opacity="0" result="BackgroundImageFix"/>
<feGaussianBlur in="BackgroundImage" stdDeviation="5.13228"/>
<feComposite in2="SourceAlpha" operator="in" result="effect1_backgroundBlur_210_715"/>
<feBlend mode="normal" in="SourceGraphic" in2="effect1_backgroundBlur_210_715" result="shape"/>
<feColorMatrix in="SourceAlpha" type="matrix" values="0 0 0 0 0 0 0 0 0 0 0 0 0 0 0 0 0 0 127 0" result="hardAlpha"/>
<feOffset dy="-3.07937"/>
<feGaussianBlur stdDeviation="5.13228"/>
<feComposite in2="hardAlpha" operator="arithmetic" k2="-1" k3="1"/>
<feColorMatrix type="matrix" values="0 0 0 0 1 0 0 0 0 1 0 0 0 0 1 0 0 0 0.15 0"/>
<feBlend mode="normal" in2="shape" result="effect2_innerShadow_210_715"/>
<feColorMatrix in="SourceAlpha" type="matrix" values="0 0 0 0 0 0 0 0 0 0 0 0 0 0 0 0 0 0 127 0" result="hardAlpha"/>
<feOffset dy="-5.13228"/>
<feGaussianBlur stdDeviation="9.26633"/>
<feComposite in2="hardAlpha" operator="arithmetic" k2="-1" k3="1"/>
<feColorMatrix type="matrix" values="0 0 0 0 1 0 0 0 0 1 0 0 0 0 1 0 0 0 0.15 0"/>
<feBlend mode="normal" in2="effect2_innerShadow_210_715" result="effect3_innerShadow_210_715"/>
<feColorMatrix in="SourceAlpha" type="matrix" values="0 0 0 0 0 0 0 0 0 0 0 0 0 0 0 0 0 0 127 0" result="hardAlpha"/>
<feOffset dy="12.3175"/>
<feGaussianBlur stdDeviation="6.26871"/>
<feComposite in2="hardAlpha" operator="arithmetic" k2="-1" k3="1"/>
<feColorMatrix type="matrix" values="0 0 0 0 1 0 0 0 0 1 0 0 0 0 1 0 0 0 0.1 0"/>
<feBlend mode="normal" in2="effect3_innerShadow_210_715" result="effect4_innerShadow_210_715"/>
<feColorMatrix in="SourceAlpha" type="matrix" values="0 0 0 0 0 0 0 0 0 0 0 0 0 0 0 0 0 0 127 0" result="hardAlpha"/>
<feOffset dy="3.02291"/>
<feGaussianBlur stdDeviation="1.56718"/>
<feComposite in2="hardAlpha" operator="arithmetic" k2="-1" k3="1"/>
<feColorMatrix type="matrix" values="0 0 0 0 1 0 0 0 0 1 0 0 0 0 1 0 0 0 0.15 0"/>
<feBlend mode="normal" in2="effect4_innerShadow_210_715" result="effect5_innerShadow_210_715"/>
</filter>
<filter id="filter1_biiii_210_715" x="16.8565" y="-6.02238" width="49.1654" height="64.0972" filterUnits="userSpaceOnUse" color-interpolation-filters="sRGB">
<feFlood flood-opacity="0" result="BackgroundImageFix"/>
<feGaussianBlur in="BackgroundImage" stdDeviation="5.13228"/>
<feComposite in2="SourceAlpha" operator="in" result="effect1_backgroundBlur_210_715"/>
<feBlend mode="normal" in="SourceGraphic" in2="effect1_backgroundBlur_210_715" result="shape"/>
<feColorMatrix in="SourceAlpha" type="matrix" values="0 0 0 0 0 0 0 0 0 0 0 0 0 0 0 0 0 0 127 0" result="hardAlpha"/>
<feOffset dy="-3.07937"/>
<feGaussianBlur stdDeviation="5.13228"/>
<feComposite in2="hardAlpha" operator="arithmetic" k2="-1" k3="1"/>
<feColorMatrix type="matrix" values="0 0 0 0 1 0 0 0 0 1 0 0 0 0 1 0 0 0 0.15 0"/>
<feBlend mode="normal" in2="shape" result="effect2_innerShadow_210_715"/>
<feColorMatrix in="SourceAlpha" type="matrix" values="0 0 0 0 0 0 0 0 0 0 0 0 0 0 0 0 0 0 127 0" result="hardAlpha"/>
<feOffset dy="-5.13228"/>
<feGaussianBlur stdDeviation="9.26633"/>
<feComposite in2="hardAlpha" operator="arithmetic" k2="-1" k3="1"/>
<feColorMatrix type="matrix" values="0 0 0 0 1 0 0 0 0 1 0 0 0 0 1 0 0 0 0.15 0"/>
<feBlend mode="normal" in2="effect2_innerShadow_210_715" result="effect3_innerShadow_210_715"/>
<feColorMatrix in="SourceAlpha" type="matrix" values="0 0 0 0 0 0 0 0 0 0 0 0 0 0 0 0 0 0 127 0" result="hardAlpha"/>
<feOffset dy="12.3175"/>
<feGaussianBlur stdDeviation="6.26871"/>
<feComposite in2="hardAlpha" operator="arithmetic" k2="-1" k3="1"/>
<feColorMatrix type="matrix" values="0 0 0 0 1 0 0 0 0 1 0 0 0 0 1 0 0 0 0.1 0"/>
<feBlend mode="normal" in2="effect3_innerShadow_210_715" result="effect4_innerShadow_210_715"/>
<feColorMatrix in="SourceAlpha" type="matrix" values="0 0 0 0 0 0 0 0 0 0 0 0 0 0 0 0 0 0 127 0" result="hardAlpha"/>
<feOffset dy="3.02291"/>
<feGaussianBlur stdDeviation="1.56718"/>
<feComposite in2="hardAlpha" operator="arithmetic" k2="-1" k3="1"/>
<feColorMatrix type="matrix" values="0 0 0 0 1 0 0 0 0 1 0 0 0 0 1 0 0 0 0.15 0"/>
<feBlend mode="normal" in2="effect4_innerShadow_210_715" result="effect5_innerShadow_210_715"/>
</filter>
<filter id="filter2_biiii_210_715" x="-10.2646" y="3.97762" width="53.408" height="59.8547" filterUnits="userSpaceOnUse" color-interpolation-filters="sRGB">
<feFlood flood-opacity="0" result="BackgroundImageFix"/>
<feGaussianBlur in="BackgroundImage" stdDeviation="5.13228"/>
<feComposite in2="SourceAlpha" operator="in" result="effect1_backgroundBlur_210_715"/>
<feBlend mode="normal" in="SourceGraphic" in2="effect1_backgroundBlur_210_715" result="shape"/>
<feColorMatrix in="SourceAlpha" type="matrix" values="0 0 0 0 0 0 0 0 0 0 0 0 0 0 0 0 0 0 127 0" result="hardAlpha"/>
<feOffset dy="-3.07937"/>
<feGaussianBlur stdDeviation="5.13228"/>
<feComposite in2="hardAlpha" operator="arithmetic" k2="-1" k3="1"/>
<feColorMatrix type="matrix" values="0 0 0 0 1 0 0 0 0 1 0 0 0 0 1 0 0 0 0.15 0"/>
<feBlend mode="normal" in2="shape" result="effect2_innerShadow_210_715"/>
<feColorMatrix in="SourceAlpha" type="matrix" values="0 0 0 0 0 0 0 0 0 0 0 0 0 0 0 0 0 0 127 0" result="hardAlpha"/>
<feOffset dy="-5.13228"/>
<feGaussianBlur stdDeviation="9.26633"/>
<feComposite in2="hardAlpha" operator="arithmetic" k2="-1" k3="1"/>
<feColorMatrix type="matrix" values="0 0 0 0 1 0 0 0 0 1 0 0 0 0 1 0 0 0 0.15 0"/>
<feBlend mode="normal" in2="effect2_innerShadow_210_715" result="effect3_innerShadow_210_715"/>
<feColorMatrix in="SourceAlpha" type="matrix" values="0 0 0 0 0 0 0 0 0 0 0 0 0 0 0 0 0 0 127 0" result="hardAlpha"/>
<feOffset dy="12.3175"/>
<feGaussianBlur stdDeviation="6.26871"/>
<feComposite in2="hardAlpha" operator="arithmetic" k2="-1" k3="1"/>
<feColorMatrix type="matrix" values="0 0 0 0 1 0 0 0 0 1 0 0 0 0 1 0 0 0 0.1 0"/>
<feBlend mode="normal" in2="effect3_innerShadow_210_715" result="effect4_innerShadow_210_715"/>
<feColorMatrix in="SourceAlpha" type="matrix" values="0 0 0 0 0 0 0 0 0 0 0 0 0 0 0 0 0 0 127 0" result="hardAlpha"/>
<feOffset dy="3.02291"/>
<feGaussianBlur stdDeviation="1.56718"/>
<feComposite in2="hardAlpha" operator="arithmetic" k2="-1" k3="1"/>
<feColorMatrix type="matrix" values="0 0 0 0 1 0 0 0 0 1 0 0 0 0 1 0 0 0 0.15 0"/>
<feBlend mode="normal" in2="effect4_innerShadow_210_715" result="effect5_innerShadow_210_715"/>
</filter>
<filter id="filter3_biiii_210_715" x="12.6143" y="35.4932" width="57.6502" height="28.3396" filterUnits="userSpaceOnUse" color-interpolation-filters="sRGB">
<feFlood flood-opacity="0" result="BackgroundImageFix"/>
<feGaussianBlur in="BackgroundImage" stdDeviation="5.13228"/>
<feComposite in2="SourceAlpha" operator="in" result="effect1_backgroundBlur_210_715"/>
<feBlend mode="normal" in="SourceGraphic" in2="effect1_backgroundBlur_210_715" result="shape"/>
<feColorMatrix in="SourceAlpha" type="matrix" values="0 0 0 0 0 0 0 0 0 0 0 0 0 0 0 0 0 0 127 0" result="hardAlpha"/>
<feOffset dy="-3.07937"/>
<feGaussianBlur stdDeviation="5.13228"/>
<feComposite in2="hardAlpha" operator="arithmetic" k2="-1" k3="1"/>
<feColorMatrix type="matrix" values="0 0 0 0 1 0 0 0 0 1 0 0 0 0 1 0 0 0 0.15 0"/>
<feBlend mode="normal" in2="shape" result="effect2_innerShadow_210_715"/>
<feColorMatrix in="SourceAlpha" type="matrix" values="0 0 0 0 0 0 0 0 0 0 0 0 0 0 0 0 0 0 127 0" result="hardAlpha"/>
<feOffset dy="-5.13228"/>
<feGaussianBlur stdDeviation="9.26633"/>
<feComposite in2="hardAlpha" operator="arithmetic" k2="-1" k3="1"/>
<feColorMatrix type="matrix" values="0 0 0 0 1 0 0 0 0 1 0 0 0 0 1 0 0 0 0.15 0"/>
<feBlend mode="normal" in2="effect2_innerShadow_210_715" result="effect3_innerShadow_210_715"/>
<feColorMatrix in="SourceAlpha" type="matrix" values="0 0 0 0 0 0 0 0 0 0 0 0 0 0 0 0 0 0 127 0" result="hardAlpha"/>
<feOffset dy="12.3175"/>
<feGaussianBlur stdDeviation="6.26871"/>
<feComposite in2="hardAlpha" operator="arithmetic" k2="-1" k3="1"/>
<feColorMatrix type="matrix" values="0 0 0 0 1 0 0 0 0 1 0 0 0 0 1 0 0 0 0.1 0"/>
<feBlend mode="normal" in2="effect3_innerShadow_210_715" result="effect4_innerShadow_210_715"/>
<feColorMatrix in="SourceAlpha" type="matrix" values="0 0 0 0 0 0 0 0 0 0 0 0 0 0 0 0 0 0 127 0" result="hardAlpha"/>
<feOffset dy="3.02291"/>
<feGaussianBlur stdDeviation="1.56718"/>
<feComposite in2="hardAlpha" operator="arithmetic" k2="-1" k3="1"/>
<feColorMatrix type="matrix" values="0 0 0 0 1 0 0 0 0 1 0 0 0 0 1 0 0 0 0.15 0"/>
<feBlend mode="normal" in2="effect4_innerShadow_210_715" result="effect5_innerShadow_210_715"/>
</filter>
<filter id="filter4_biiii_210_715" x="12.6143" y="35.4932" width="57.6502" height="28.3396" filterUnits="userSpaceOnUse" color-interpolation-filters="sRGB">
<feFlood flood-opacity="0" result="BackgroundImageFix"/>
<feGaussianBlur in="BackgroundImage" stdDeviation="5.13228"/>
<feComposite in2="SourceAlpha" operator="in" result="effect1_backgroundBlur_210_715"/>
<feBlend mode="normal" in="SourceGraphic" in2="effect1_backgroundBlur_210_715" result="shape"/>
<feColorMatrix in="SourceAlpha" type="matrix" values="0 0 0 0 0 0 0 0 0 0 0 0 0 0 0 0 0 0 127 0" result="hardAlpha"/>
<feOffset dy="-3.07937"/>
<feGaussianBlur stdDeviation="5.13228"/>
<feComposite in2="hardAlpha" operator="arithmetic" k2="-1" k3="1"/>
<feColorMatrix type="matrix" values="0 0 0 0 1 0 0 0 0 1 0 0 0 0 1 0 0 0 0.15 0"/>
<feBlend mode="normal" in2="shape" result="effect2_innerShadow_210_715"/>
<feColorMatrix in="SourceAlpha" type="matrix" values="0 0 0 0 0 0 0 0 0 0 0 0 0 0 0 0 0 0 127 0" result="hardAlpha"/>
<feOffset dy="-5.13228"/>
<feGaussianBlur stdDeviation="9.26633"/>
<feComposite in2="hardAlpha" operator="arithmetic" k2="-1" k3="1"/>
<feColorMatrix type="matrix" values="0 0 0 0 1 0 0 0 0 1 0 0 0 0 1 0 0 0 0.15 0"/>
<feBlend mode="normal" in2="effect2_innerShadow_210_715" result="effect3_innerShadow_210_715"/>
<feColorMatrix in="SourceAlpha" type="matrix" values="0 0 0 0 0 0 0 0 0 0 0 0 0 0 0 0 0 0 127 0" result="hardAlpha"/>
<feOffset dy="12.3175"/>
<feGaussianBlur stdDeviation="6.26871"/>
<feComposite in2="hardAlpha" operator="arithmetic" k2="-1" k3="1"/>
<feColorMatrix type="matrix" values="0 0 0 0 1 0 0 0 0 1 0 0 0 0 1 0 0 0 0.1 0"/>
<feBlend mode="normal" in2="effect3_innerShadow_210_715" result="effect4_innerShadow_210_715"/>
<feColorMatrix in="SourceAlpha" type="matrix" values="0 0 0 0 0 0 0 0 0 0 0 0 0 0 0 0 0 0 127 0" result="hardAlpha"/>
<feOffset dy="3.02291"/>
<feGaussianBlur stdDeviation="1.56718"/>
<feComposite in2="hardAlpha" operator="arithmetic" k2="-1" k3="1"/>
<feColorMatrix type="matrix" values="0 0 0 0 1 0 0 0 0 1 0 0 0 0 1 0 0 0 0.15 0"/>
<feBlend mode="normal" in2="effect4_innerShadow_210_715" result="effect5_innerShadow_210_715"/>
</filter>
<filter id="filter5_biiii_210_715" x="12.6143" y="35.4932" width="57.6502" height="28.3396" filterUnits="userSpaceOnUse" color-interpolation-filters="sRGB">
<feFlood flood-opacity="0" result="BackgroundImageFix"/>
<feGaussianBlur in="BackgroundImage" stdDeviation="5.13228"/>
<feComposite in2="SourceAlpha" operator="in" result="effect1_backgroundBlur_210_715"/>
<feBlend mode="normal" in="SourceGraphic" in2="effect1_backgroundBlur_210_715" result="shape"/>
<feColorMatrix in="SourceAlpha" type="matrix" values="0 0 0 0 0 0 0 0 0 0 0 0 0 0 0 0 0 0 127 0" result="hardAlpha"/>
<feOffset dy="-3.07937"/>
<feGaussianBlur stdDeviation="5.13228"/>
<feComposite in2="hardAlpha" operator="arithmetic" k2="-1" k3="1"/>
<feColorMatrix type="matrix" values="0 0 0 0 1 0 0 0 0 1 0 0 0 0 1 0 0 0 0.15 0"/>
<feBlend mode="normal" in2="shape" result="effect2_innerShadow_210_715"/>
<feColorMatrix in="SourceAlpha" type="matrix" values="0 0 0 0 0 0 0 0 0 0 0 0 0 0 0 0 0 0 127 0" result="hardAlpha"/>
<feOffset dy="-5.13228"/>
<feGaussianBlur stdDeviation="9.26633"/>
<feComposite in2="hardAlpha" operator="arithmetic" k2="-1" k3="1"/>
<feColorMatrix type="matrix" values="0 0 0 0 1 0 0 0 0 1 0 0 0 0 1 0 0 0 0.15 0"/>
<feBlend mode="normal" in2="effect2_innerShadow_210_715" result="effect3_innerShadow_210_715"/>
<feColorMatrix in="SourceAlpha" type="matrix" values="0 0 0 0 0 0 0 0 0 0 0 0 0 0 0 0 0 0 127 0" result="hardAlpha"/>
<feOffset dy="12.3175"/>
<feGaussianBlur stdDeviation="6.26871"/>
<feComposite in2="hardAlpha" operator="arithmetic" k2="-1" k3="1"/>
<feColorMatrix type="matrix" values="0 0 0 0 1 0 0 0 0 1 0 0 0 0 1 0 0 0 0.1 0"/>
<feBlend mode="normal" in2="effect3_innerShadow_210_715" result="effect4_innerShadow_210_715"/>
<feColorMatrix in="SourceAlpha" type="matrix" values="0 0 0 0 0 0 0 0 0 0 0 0 0 0 0 0 0 0 127 0" result="hardAlpha"/>
<feOffset dy="3.02291"/>
<feGaussianBlur stdDeviation="1.56718"/>
<feComposite in2="hardAlpha" operator="arithmetic" k2="-1" k3="1"/>
<feColorMatrix type="matrix" values="0 0 0 0 1 0 0 0 0 1 0 0 0 0 1 0 0 0 0.15 0"/>
<feBlend mode="normal" in2="effect4_innerShadow_210_715" result="effect5_innerShadow_210_715"/>
</filter>
<filter id="filter6_biiii_210_715" x="-4.50675" y="-10.2646" width="32.0443" height="34.0972" filterUnits="userSpaceOnUse" color-interpolation-filters="sRGB">
<feFlood flood-opacity="0" result="BackgroundImageFix"/>
<feGaussianBlur in="BackgroundImage" stdDeviation="5.13228"/>
<feComposite in2="SourceAlpha" operator="in" result="effect1_backgroundBlur_210_715"/>
<feBlend mode="normal" in="SourceGraphic" in2="effect1_backgroundBlur_210_715" result="shape"/>
<feColorMatrix in="SourceAlpha" type="matrix" values="0 0 0 0 0 0 0 0 0 0 0 0 0 0 0 0 0 0 127 0" result="hardAlpha"/>
<feOffset dy="-3.07937"/>
<feGaussianBlur stdDeviation="5.13228"/>
<feComposite in2="hardAlpha" operator="arithmetic" k2="-1" k3="1"/>
<feColorMatrix type="matrix" values="0 0 0 0 1 0 0 0 0 1 0 0 0 0 1 0 0 0 0.15 0"/>
<feBlend mode="normal" in2="shape" result="effect2_innerShadow_210_715"/>
<feColorMatrix in="SourceAlpha" type="matrix" values="0 0 0 0 0 0 0 0 0 0 0 0 0 0 0 0 0 0 127 0" result="hardAlpha"/>
<feOffset dy="-5.13228"/>
<feGaussianBlur stdDeviation="9.26633"/>
<feComposite in2="hardAlpha" operator="arithmetic" k2="-1" k3="1"/>
<feColorMatrix type="matrix" values="0 0 0 0 1 0 0 0 0 1 0 0 0 0 1 0 0 0 0.15 0"/>
<feBlend mode="normal" in2="effect2_innerShadow_210_715" result="effect3_innerShadow_210_715"/>
<feColorMatrix in="SourceAlpha" type="matrix" values="0 0 0 0 0 0 0 0 0 0 0 0 0 0 0 0 0 0 127 0" result="hardAlpha"/>
<feOffset dy="12.3175"/>
<feGaussianBlur stdDeviation="6.26871"/>
<feComposite in2="hardAlpha" operator="arithmetic" k2="-1" k3="1"/>
<feColorMatrix type="matrix" values="0 0 0 0 1 0 0 0 0 1 0 0 0 0 1 0 0 0 0.1 0"/>
<feBlend mode="normal" in2="effect3_innerShadow_210_715" result="effect4_innerShadow_210_715"/>
<feColorMatrix in="SourceAlpha" type="matrix" values="0 0 0 0 0 0 0 0 0 0 0 0 0 0 0 0 0 0 127 0" result="hardAlpha"/>
<feOffset dy="3.02291"/>
<feGaussianBlur stdDeviation="1.56718"/>
<feComposite in2="hardAlpha" operator="arithmetic" k2="-1" k3="1"/>
<feColorMatrix type="matrix" values="0 0 0 0 1 0 0 0 0 1 0 0 0 0 1 0 0 0 0.15 0"/>
<feBlend mode="normal" in2="effect4_innerShadow_210_715" result="effect5_innerShadow_210_715"/>
</filter>
<linearGradient id="paint0_linear_210_715" x1="41.4393" y1="4.24219" x2="41.4393" y2="45.7573" gradientUnits="userSpaceOnUse">
<stop stop-color="#4F99E3"/>
<stop offset="1" stop-color="#3E7AB5"/>
</linearGradient>
<linearGradient id="paint1_linear_210_715" x1="41.4393" y1="4.24219" x2="41.4393" y2="45.7573" gradientUnits="userSpaceOnUse">
<stop stop-color="#4F99E3"/>
<stop offset="1" stop-color="#3E7AB5"/>
</linearGradient>
<linearGradient id="paint2_linear_210_715" x1="54.3853" y1="45.7573" x2="27.2047" y2="39.2732" gradientUnits="userSpaceOnUse">
<stop stop-color="white" stop-opacity="0"/>
<stop offset="1" stop-color="white"/>
</linearGradient>
<linearGradient id="paint3_linear_210_715" x1="41.4393" y1="4.24219" x2="41.4393" y2="45.7573" gradientUnits="userSpaceOnUse">
<stop stop-color="#4F99E3"/>
<stop offset="1" stop-color="#3E7AB5"/>
</linearGradient>
<linearGradient id="paint4_linear_210_715" x1="54.3853" y1="45.7573" x2="27.2047" y2="39.2732" gradientUnits="userSpaceOnUse">
<stop stop-color="white" stop-opacity="0"/>
<stop offset="1" stop-color="white"/>
</linearGradient>
<linearGradient id="paint5_linear_210_715" x1="16.4394" y1="14.2422" x2="16.4394" y2="51.5149" gradientUnits="userSpaceOnUse">
<stop stop-color="#4F99E3"/>
<stop offset="1" stop-color="#3E7AB5"/>
</linearGradient>
<linearGradient id="paint6_linear_210_715" x1="16.4394" y1="14.2422" x2="16.4394" y2="51.5149" gradientUnits="userSpaceOnUse">
<stop stop-color="#4F99E3"/>
<stop offset="1" stop-color="#3E7AB5"/>
</linearGradient>
<linearGradient id="paint7_linear_210_715" x1="31.3033" y1="51.5149" x2="1.12843" y2="42.3093" gradientUnits="userSpaceOnUse">
<stop stop-color="white" stop-opacity="0"/>
<stop offset="1" stop-color="white"/>
</linearGradient>
<linearGradient id="paint8_linear_210_715" x1="41.4395" y1="45.7578" x2="41.4395" y2="51.5154" gradientUnits="userSpaceOnUse">
<stop stop-color="#4F99E3"/>
<stop offset="1" stop-color="#3E7AB5"/>
</linearGradient>
<linearGradient id="paint9_linear_210_715" x1="41.4395" y1="45.7578" x2="41.4395" y2="51.5154" gradientUnits="userSpaceOnUse">
<stop stop-color="#4F99E3"/>
<stop offset="1" stop-color="#3E7AB5"/>
</linearGradient>
<linearGradient id="paint10_linear_210_715" x1="41.4395" y1="45.7578" x2="41.4395" y2="51.5154" gradientUnits="userSpaceOnUse">
<stop stop-color="#4F99E3"/>
<stop offset="1" stop-color="#3E7AB5"/>
</linearGradient>
<linearGradient id="paint11_linear_210_715" x1="41.4395" y1="45.7578" x2="41.4395" y2="51.5154" gradientUnits="userSpaceOnUse">
<stop stop-color="#4F99E3"/>
<stop offset="1" stop-color="#3E7AB5"/>
</linearGradient>
<linearGradient id="paint12_linear_210_715" x1="11.5154" y1="0" x2="11.5154" y2="11.5152" gradientUnits="userSpaceOnUse">
<stop stop-color="#4F99E3"/>
<stop offset="1" stop-color="#3E7AB5"/>
</linearGradient>
<linearGradient id="paint13_linear_210_715" x1="11.5154" y1="0" x2="11.5154" y2="11.5152" gradientUnits="userSpaceOnUse">
<stop stop-color="#4F99E3"/>
<stop offset="1" stop-color="#3E7AB5"/>
</linearGradient>
<linearGradient id="paint14_linear_210_715" x1="16.7212" y1="11.5152" x2="6.40352" y2="7.94684" gradientUnits="userSpaceOnUse">
<stop stop-color="white" stop-opacity="0"/>
<stop offset="1" stop-color="white"/>
</linearGradient>
</defs>
</svg>
